<svg width="45" height="45" viewBox="0 0 45 45" fill="none" xmlns="http://www.w3.org/2000/svg">
<path d="M35.9964 16.5734C37.7292 16.5725 39.4254 17.0984 40.8813 18.0879C42.3372 19.0775 43.4907 20.4885 44.2035 22.1517C44.9162 23.8148 45.1578 25.6592 44.8992 27.4634C44.6406 29.2676 43.8929 30.9548 42.7458 32.3224V43.2197C42.7463 43.5239 42.6727 43.8232 42.532 44.0888C42.3913 44.3545 42.1881 44.5776 41.942 44.7369C41.6959 44.8962 41.4151 44.9863 41.1264 44.9986C40.8378 45.0108 40.551 44.9448 40.2935 44.8069L40.091 44.6766L35.9964 41.6633L31.9018 44.6766C31.6654 44.8505 31.3905 44.9576 31.1035 44.9878C30.8166 45.018 30.527 44.9702 30.2626 44.8491C29.9981 44.7279 29.7676 44.5374 29.5929 44.2957C29.4183 44.054 29.3054 43.7692 29.2651 43.4685L29.2493 43.2197V32.3177C28.1038 30.9501 27.3573 29.2636 27.0994 27.4604C26.8415 25.6572 27.0832 23.8139 27.7955 22.1518C28.5078 20.4896 29.6605 19.0792 31.1151 18.0897C32.5698 17.1003 34.2647 16.5738 35.9964 16.5734V16.5734ZM39.3711 34.8383C38.2989 35.2948 37.153 35.5289 35.9964 35.5276C34.8399 35.5289 33.694 35.2948 32.6218 34.8383V39.8108L35.0313 38.0411C35.2779 37.8591 35.5664 37.7499 35.8667 37.7249C36.1669 37.6999 36.4681 37.76 36.7388 37.899L36.9638 38.0411L39.3711 39.8108V34.8383V34.8383ZM38.8086 8.02743e-09C40.3841 -8.22967e-05 41.9003 0.632737 43.0479 1.76938C44.1955 2.90602 44.888 4.46085 44.9843 6.11671L44.9955 6.5147L44.9978 18.9424C44.0854 17.6634 42.9377 16.591 41.6231 15.7893L41.6209 6.5147C41.6212 5.7816 41.3632 5.07444 40.8969 4.53005C40.4307 3.98566 39.7892 3.64276 39.0966 3.56769L38.8086 3.55347H6.18688C5.49067 3.55314 4.81909 3.82475 4.3021 4.31575C3.78511 4.80675 3.45946 5.48223 3.38816 6.21147L3.37466 6.5147V29.02C3.37466 30.5528 4.48156 31.8154 5.89891 31.9647L6.18688 31.9813L26.2594 31.9836L26.5361 32.4645L26.8376 32.9289L26.9973 33.1515L26.9951 35.5347H6.18688C4.61103 35.5348 3.09455 34.9016 1.9469 33.7645C0.799256 32.6274 0.106946 31.0719 0.0112491 29.4157L7.62349e-09 29.02V6.5147C-7.81555e-05 4.85574 0.600898 3.25923 1.68034 2.05083C2.75979 0.842439 4.23638 0.113193 5.80892 0.0118452L6.18688 8.02743e-09H38.8086V8.02743e-09ZM35.9964 20.1269C34.5044 20.1269 33.0735 20.751 32.0185 21.8619C30.9635 22.9728 30.3709 24.4795 30.3709 26.0505C30.3709 27.6216 30.9635 29.1283 32.0185 30.2392C33.0735 31.3501 34.5044 31.9742 35.9964 31.9742C37.4884 31.9742 38.9193 31.3501 39.9743 30.2392C41.0293 29.1283 41.622 27.6216 41.622 26.0505C41.622 24.4795 41.0293 22.9728 39.9743 21.8619C38.9193 20.751 37.4884 20.1269 35.9964 20.1269ZM20.8104 22.4959C21.2379 22.496 21.6495 22.667 21.9618 22.9743C22.2742 23.2817 22.4642 23.7024 22.4933 24.1515C22.5225 24.6006 22.3886 25.0446 22.1188 25.3938C21.849 25.743 21.4634 25.9714 21.0399 26.0328L20.8104 26.0493H10.6864C10.2589 26.0492 9.8474 25.8782 9.53502 25.5709C9.22264 25.2635 9.03269 24.8428 9.00355 24.3937C8.97441 23.9446 9.10825 23.5006 9.37804 23.1514C9.64783 22.8022 10.0334 22.5738 10.457 22.5124L10.6864 22.4959H20.8104ZM34.3091 9.46646C34.7366 9.46659 35.1481 9.6376 35.4605 9.94493C35.7729 10.2522 35.9628 10.673 35.992 11.1221C36.0211 11.5712 35.8873 12.0152 35.6175 12.3644C35.3477 12.7136 34.9621 12.942 34.5386 13.0033L34.3091 13.0199H10.6864C10.2589 13.0198 9.8474 12.8488 9.53502 12.5415C9.22264 12.2341 9.03269 11.8134 9.00355 11.3643C8.97441 10.9152 9.10825 10.4712 9.37804 10.122C9.64783 9.77275 10.0334 9.5444 10.457 9.48304L10.6864 9.46646H34.3091Z" fill="#A0D993"/>
</svg>
