<svg width="45" height="45" viewBox="0 0 45 45" fill="none" xmlns="http://www.w3.org/2000/svg">
<path fill-rule="evenodd" clip-rule="evenodd" d="M17.6794 16.8169H24.6431V20.2856C25.6462 18.2906 28.2187 16.4981 32.0831 16.4981C39.4913 16.4981 41.25 20.4694 41.25 27.7556V41.25H33.75V29.415C33.75 25.2656 32.7469 22.9256 30.1931 22.9256C26.6513 22.9256 25.1794 25.4475 25.1794 29.4131V41.25H17.6794V16.8169V16.8169ZM4.81875 40.9312H12.3188V16.4981H4.81875V40.9312V40.9312ZM13.3931 8.53125C13.3934 9.15989 13.2687 9.78232 13.0264 10.3624C12.784 10.9424 12.4287 11.4685 11.9812 11.91C11.0745 12.8112 9.84714 13.3156 8.56875 13.3125C7.29261 13.3116 6.06808 12.8085 5.16 11.9119C4.71415 11.4688 4.3601 10.9422 4.11814 10.3621C3.87619 9.78195 3.75109 9.1598 3.75 8.53125C3.75 7.26188 4.25625 6.04688 5.16188 5.15063C6.06916 4.2528 7.2942 3.74944 8.57063 3.75C9.84938 3.75 11.0756 4.25438 11.9812 5.15063C12.885 6.04688 13.3931 7.26188 13.3931 8.53125Z" fill="#A0D993"/>
</svg>
