<svg width="100" height="100" viewBox="0 0 100 100" fill="none" xmlns="http://www.w3.org/2000/svg">
<path d="M52 2.3094L90.3013 24.4227C91.5389 25.1372 92.3013 26.4577 92.3013 27.8868V72.1133C92.3013 73.5423 91.5389 74.8628 90.3013 75.5773L52 97.6906C50.7624 98.4051 49.2376 98.4051 48 97.6906L9.69873 75.5773C8.46112 74.8628 7.69873 73.5423 7.69873 72.1133V27.8867C7.69873 26.4577 8.46113 25.1372 9.69873 24.4226L48 2.3094C49.2376 1.59487 50.7624 1.59487 52 2.3094Z" stroke="#A0D993" stroke-width="2"/>
<path d="M23.7405 57.0734L22.077 56.6148L26.2595 42.9256L27.923 43.3842L23.7405 57.0734ZM23.7157 57.5851L23.8138 57.2295L23.8159 57.2301L23.7157 57.5851ZM23.8515 57.104L23.8165 57.2278L23.8144 57.2271L23.8486 57.1032C23.8496 57.1035 23.8505 57.1037 23.8515 57.104ZM19.878 53.9822L20.1535 54.254L19.8753 53.9852L19.8752 53.985L19.794 53.9065C19.7952 53.9053 19.7964 53.9041 19.7976 53.9029L19.8778 53.982L19.878 53.9822ZM19.875 53.8244L15.5796 49.9981L19.875 46.1746L21.0403 47.3556L18.3361 49.6159L17.8771 49.9995L18.3361 50.3831L21.0403 52.6434L19.875 53.8244ZM19.9551 53.8957L19.9549 53.8955L19.9551 53.8957ZM30.125 46.1717L34.4205 50.0009L30.1265 53.826L28.9597 52.6434L31.6639 50.3831L32.1226 49.9997L31.6642 49.6161L28.9596 47.3527L30.125 46.1717ZM28.8432 47.4707C28.8431 47.4708 28.843 47.4709 28.8429 47.471L28.8431 47.4708L28.8432 47.4707Z" fill="#A0D993" stroke="#A0D993"/>
<path d="M48.566 51.984L46.262 51.96C45.606 51.96 45.102 51.968 44.75 51.984C44.494 54.224 44.366 56.04 44.366 57.432C44.366 58.824 44.414 59.8 44.51 60.36C43.998 60.392 43.662 60.408 43.502 60.408C42.59 60.408 41.934 60.248 41.534 59.928C41.134 59.608 40.934 59.048 40.934 58.248C40.934 57.432 41.158 55.488 41.606 52.416C41.094 52.576 40.718 52.712 40.478 52.824C40.446 52.472 40.43 52.208 40.43 52.032C40.43 50.928 40.934 50.24 41.942 49.968C42.246 47.776 42.43 45.88 42.494 44.28C41.678 44.28 41.158 44.168 40.934 43.944C40.726 43.72 40.622 43.224 40.622 42.456C40.686 41.736 40.75 41.264 40.814 41.04C42.622 41.28 44.606 41.4 46.766 41.4C48.926 41.4 51.014 41.208 53.03 40.824C52.806 42.504 51.782 43.512 49.958 43.848C48.966 44.04 47.55 44.168 45.71 44.232C45.694 44.44 45.462 46.304 45.014 49.824C45.942 49.856 46.574 49.872 46.91 49.872C48.43 49.872 49.51 49.608 50.15 49.08C50.182 49.4 50.198 49.64 50.198 49.8C50.198 51.256 49.654 51.984 48.566 51.984ZM64.4908 55.488C63.9148 55.712 63.4668 55.824 63.1468 55.824C62.1868 55.824 61.6508 55.688 61.5388 55.416C59.9388 51.304 58.8828 48.656 58.3708 47.472C58.3228 47.904 58.1948 48.904 57.9868 50.472C57.5548 53.544 57.3388 56.096 57.3388 58.128C57.3388 58.624 57.3708 59.288 57.4348 60.12C56.3148 60.12 55.5548 59.992 55.1548 59.736C54.7708 59.464 54.5788 59.088 54.5788 58.608C54.5788 58.448 54.8428 56.272 55.3708 52.08C55.9148 47.888 56.1868 44.968 56.1868 43.32V43.2C55.7228 42.448 55.2348 41.832 54.7228 41.352C55.3148 40.936 56.0268 40.728 56.8588 40.728C57.9148 40.728 58.7308 41.224 59.3068 42.216C59.8828 43.192 61.0108 45.888 62.6908 50.304L63.7948 53.136C63.8908 52.976 64.0348 52.76 64.2268 52.488C68.1308 46.712 70.1388 42.792 70.2508 40.728C70.2508 40.744 70.4428 40.768 70.8268 40.8C71.2108 40.816 71.6188 40.896 72.0508 41.04C72.4988 41.168 72.8188 41.376 73.0108 41.664C73.2188 41.936 73.3468 42.208 73.3948 42.48C73.4428 42.736 73.4668 43.184 73.4668 43.824C73.4668 44.448 73.2028 46.568 72.6748 50.184C72.1468 53.8 71.8828 56.336 71.8828 57.792C71.8828 59.232 71.9948 60.216 72.2188 60.744C70.8588 60.392 69.9308 59.928 69.4348 59.352C68.9388 58.76 68.6908 57.944 68.6908 56.904C68.6908 56.296 68.8508 54.8 69.1708 52.416C69.5068 50.032 69.7388 48.128 69.8668 46.704C69.2268 47.808 68.3148 49.32 67.1308 51.24C65.9628 53.16 65.2588 54.304 65.0188 54.672C64.7788 55.024 64.6028 55.296 64.4908 55.488Z" fill="#A0D993"/>
<path d="M48.566 51.984L48.5556 52.984H48.566V51.984ZM46.262 51.96L46.2724 50.96H46.262V51.96ZM44.75 51.984L44.7046 50.985L43.8532 51.0237L43.7565 51.8705L44.75 51.984ZM44.51 60.36L44.5724 61.3581L45.6838 61.2886L45.4956 60.191L44.51 60.36ZM41.534 59.928L40.9093 60.7089L41.534 59.928ZM41.606 52.416L42.5955 52.5603L42.8249 50.9874L41.3077 51.4615L41.606 52.416ZM40.478 52.824L39.4821 52.9145L39.611 54.3321L40.9009 53.7302L40.478 52.824ZM41.942 49.968L42.2025 50.9335L42.8416 50.761L42.9325 50.1054L41.942 49.968ZM42.494 44.28L43.4932 44.32L43.5348 43.28H42.494V44.28ZM40.934 43.944L40.2012 44.6245L40.2138 44.638L40.2269 44.6511L40.934 43.944ZM40.622 42.456L39.6259 42.3675L39.622 42.4116V42.456H40.622ZM40.814 41.04L40.9456 40.0487L40.0897 39.9351L39.8525 40.7653L40.814 41.04ZM53.03 40.824L54.0212 40.9562L54.2044 39.5823L52.8429 39.8417L53.03 40.824ZM49.958 43.848L49.7768 42.8645L49.768 42.8662L49.958 43.848ZM45.71 44.232L45.6752 43.2326L44.7815 43.2637L44.7129 44.1553L45.71 44.232ZM45.014 49.824L44.022 49.6977L43.8835 50.7856L44.9795 50.8234L45.014 49.824ZM50.15 49.08L51.145 48.9805L50.9586 47.1165L49.5136 48.3086L50.15 49.08ZM48.5764 50.9841L46.2724 50.9601L46.2516 52.9599L48.5556 52.9839L48.5764 50.9841ZM46.262 50.96C45.6014 50.96 45.0795 50.968 44.7046 50.985L44.7954 52.983C45.1245 52.968 45.6106 52.96 46.262 52.96V50.96ZM43.7565 51.8705C43.4984 54.1282 43.366 55.9862 43.366 57.432H45.366C45.366 56.0938 45.4896 54.3198 45.7435 52.0975L43.7565 51.8705ZM43.366 57.432C43.366 58.8228 43.4124 59.8759 43.5244 60.529L45.4956 60.191C45.4156 59.7241 45.366 58.8252 45.366 57.432H43.366ZM44.4476 59.3619C43.9289 59.3944 43.6251 59.408 43.502 59.408V61.408C43.6989 61.408 44.0671 61.3896 44.5724 61.3581L44.4476 59.3619ZM43.502 59.408C42.6592 59.408 42.2884 59.2509 42.1587 59.1471L40.9093 60.7089C41.5796 61.2451 42.5208 61.408 43.502 61.408V59.408ZM42.1587 59.1471C42.1037 59.1032 41.934 58.9162 41.934 58.248H39.934C39.934 59.1798 40.1643 60.1128 40.9093 60.7089L42.1587 59.1471ZM41.934 58.248C41.934 57.5203 42.144 55.6568 42.5955 52.5603L40.6165 52.2717C40.172 55.3192 39.934 57.3437 39.934 58.248H41.934ZM41.3077 51.4615C40.787 51.6242 40.3584 51.7763 40.0551 51.9178L40.9009 53.7302C41.0776 53.6477 41.401 53.5278 41.9043 53.3705L41.3077 51.4615ZM41.4739 52.7335C41.4425 52.388 41.43 52.1609 41.43 52.032H39.43C39.43 52.2551 39.4495 52.556 39.4821 52.9145L41.4739 52.7335ZM41.43 52.032C41.43 51.6299 41.5208 51.4071 41.6147 51.279C41.7044 51.1565 41.8672 51.024 42.2025 50.9335L41.6815 49.0025C41.0088 49.184 40.4156 49.5315 40.0013 50.097C39.5912 50.6569 39.43 51.3301 39.43 52.032H41.43ZM42.9325 50.1054C43.2394 47.8923 43.4275 45.9622 43.4932 44.32L41.4948 44.24C41.4325 45.7978 41.2526 47.6597 40.9515 49.8306L42.9325 50.1054ZM42.494 43.28C42.1235 43.28 41.8671 43.2538 41.7026 43.2184C41.5166 43.1784 41.5531 43.1489 41.6411 43.2369L40.2269 44.6511C40.5389 44.9631 40.9474 45.1016 41.2814 45.1736C41.6369 45.2502 42.0485 45.28 42.494 45.28V43.28ZM41.6668 43.2635C41.743 43.3456 41.7153 43.3733 41.6787 43.1988C41.6461 43.0433 41.622 42.8024 41.622 42.456H39.622C39.622 42.8776 39.6499 43.2687 39.7213 43.6092C39.7887 43.9307 39.917 44.3184 40.2012 44.6245L41.6668 43.2635ZM41.6181 42.5445C41.6837 41.806 41.7422 41.4313 41.7755 41.3147L39.8525 40.7653C39.7578 41.0967 39.6883 41.666 39.6259 42.3675L41.6181 42.5445ZM40.6824 42.0313C42.5411 42.278 44.5698 42.4 46.766 42.4V40.4C44.6422 40.4 42.7029 40.282 40.9456 40.0487L40.6824 42.0313ZM46.766 42.4C48.9855 42.4 51.1363 42.2027 53.2171 41.8063L52.8429 39.8417C50.8917 40.2133 48.8665 40.4 46.766 40.4V42.4ZM52.0388 40.6918C51.9507 41.3526 51.7189 41.806 51.3925 42.1273C51.0592 42.4554 50.549 42.7223 49.7768 42.8645L50.1392 44.8315C51.191 44.6377 52.1048 44.2326 52.7955 43.5527C53.4931 42.866 53.8853 41.9754 54.0212 40.9562L52.0388 40.6918ZM49.768 42.8662C48.8528 43.0434 47.4981 43.1692 45.6752 43.2326L45.7448 45.2314C47.6019 45.1668 49.0792 45.0366 50.148 44.8298L49.768 42.8662ZM44.7129 44.1553C44.713 44.1546 44.7123 44.1634 44.7098 44.1873C44.7075 44.2093 44.7043 44.2386 44.7001 44.2758C44.6918 44.3502 44.68 44.4512 44.6646 44.5797C44.6339 44.8363 44.5896 45.197 44.5317 45.6625C44.4158 46.5931 44.246 47.938 44.022 49.6977L46.006 49.9503C46.4507 46.4561 46.6885 44.5496 46.7071 44.3087L44.7129 44.1553ZM44.9795 50.8234C45.9057 50.8553 46.5543 50.872 46.91 50.872V48.872C46.5937 48.872 45.9783 48.8567 45.0485 48.8246L44.9795 50.8234ZM46.91 50.872C48.4917 50.872 49.8693 50.6079 50.7864 49.8514L49.5136 48.3086C49.1507 48.6081 48.3683 48.872 46.91 48.872V50.872ZM49.155 49.1795C49.1863 49.4924 49.198 49.6918 49.198 49.8H51.198C51.198 49.5882 51.1777 49.3076 51.145 48.9805L49.155 49.1795ZM49.198 49.8C49.198 50.4324 49.0747 50.7246 48.9889 50.8394C48.944 50.8995 48.8646 50.984 48.566 50.984V52.984C49.3554 52.984 50.092 52.7045 50.5911 52.0366C51.0493 51.4234 51.198 50.6236 51.198 49.8H49.198ZM64.4908 55.488L64.8532 56.42L65.1786 56.2935L65.3545 55.9919L64.4908 55.488ZM61.5388 55.416L60.6068 55.7786L60.6104 55.7877L60.6141 55.7967L61.5388 55.416ZM58.3708 47.472L59.2886 47.0751L57.793 43.6165L57.3769 47.3616L58.3708 47.472ZM57.9868 50.472L58.977 50.6113L58.9781 50.6035L57.9868 50.472ZM57.4348 60.12V61.12H58.5146L58.4318 60.0433L57.4348 60.12ZM55.1548 59.736L54.5767 60.552L54.5959 60.5656L54.6157 60.5783L55.1548 59.736ZM55.3708 52.08L54.3791 51.9513L54.3786 51.955L55.3708 52.08ZM56.1868 43.2H57.1868V42.9163L57.0378 42.6749L56.1868 43.2ZM54.7228 41.352L54.1478 40.5338L53.1419 41.2407L54.0388 42.0815L54.7228 41.352ZM59.3068 42.216L58.4419 42.7181L58.4455 42.7243L59.3068 42.216ZM62.6908 50.304L61.7561 50.6596L61.759 50.6672L62.6908 50.304ZM63.7948 53.136L62.863 53.4992L63.6034 55.3985L64.6522 53.6505L63.7948 53.136ZM64.2268 52.488L65.0437 53.0647L65.0496 53.0564L65.0553 53.048L64.2268 52.488ZM70.2508 40.728H71.2508L69.2522 40.6738L70.2508 40.728ZM70.8268 40.8L70.7437 41.7965L70.7644 41.7983L70.7851 41.7991L70.8268 40.8ZM72.0508 41.04L71.7345 41.9887L71.7551 41.9956L71.776 42.0015L72.0508 41.04ZM73.0108 41.664L72.1787 42.2187L72.1967 42.2457L72.2164 42.2714L73.0108 41.664ZM73.3948 42.48L72.4099 42.6538L72.4119 42.6643L73.3948 42.48ZM72.6748 50.184L73.6643 50.3285L73.6643 50.3285L72.6748 50.184ZM72.2188 60.744L71.9682 61.7121L73.9313 62.2202L73.1393 60.3534L72.2188 60.744ZM69.4348 59.352L68.6682 59.9943L68.677 60.0045L69.4348 59.352ZM69.1708 52.416L68.1805 52.2764L68.1796 52.283L69.1708 52.416ZM69.8668 46.704L70.8627 46.7935L69.0016 46.2025L69.8668 46.704ZM67.1308 51.24L66.2796 50.7151L66.2764 50.7203L67.1308 51.24ZM65.0188 54.672L65.845 55.2353L65.8508 55.2269L65.8564 55.2183L65.0188 54.672ZM64.1283 54.556C63.5807 54.769 63.2749 54.824 63.1468 54.824V56.824C63.6586 56.824 64.2488 56.655 64.8532 56.42L64.1283 54.556ZM63.1468 54.824C62.6985 54.824 62.4204 54.7907 62.2707 54.7527C62.1972 54.7341 62.1977 54.7247 62.2351 54.7483C62.2771 54.7747 62.3915 54.8606 62.4634 55.0352L60.6141 55.7967C60.8637 56.4029 61.4572 56.6097 61.7788 56.6913C62.1651 56.7893 62.635 56.824 63.1468 56.824V54.824ZM62.4707 55.0534C60.8725 50.9459 59.8094 48.2795 59.2886 47.0751L57.4529 47.8689C57.9561 49.0325 59.005 51.6621 60.6068 55.7786L62.4707 55.0534ZM57.3769 47.3616C57.3303 47.7808 57.2039 48.7693 56.9954 50.3405L58.9781 50.6035C59.1856 49.0387 59.3152 48.0272 59.3646 47.5824L57.3769 47.3616ZM56.9965 50.3327C56.561 53.4296 56.3388 56.032 56.3388 58.128H58.3388C58.3388 56.16 58.5485 53.6584 58.977 50.6113L56.9965 50.3327ZM56.3388 58.128C56.3388 58.661 56.3729 59.3538 56.4377 60.1967L58.4318 60.0433C58.3686 59.2222 58.3388 58.587 58.3388 58.128H56.3388ZM57.4348 59.12C56.9078 59.12 56.4975 59.0895 56.1908 59.0379C55.8709 58.984 55.7316 58.9179 55.6938 58.8937L54.6157 60.5783C54.9779 60.8101 55.4186 60.936 55.8587 61.0101C56.312 61.0865 56.8417 61.12 57.4348 61.12V59.12ZM55.7328 58.92C55.6197 58.8399 55.5788 58.7714 55.5788 58.608H53.5788C53.5788 59.4046 53.9218 60.0881 54.5767 60.552L55.7328 58.92ZM55.5788 58.608C55.5788 58.641 55.5843 58.5554 55.6219 58.2223C55.6545 57.9344 55.7036 57.5196 55.7695 56.9764C55.9012 55.8908 56.099 54.3006 56.3629 52.205L54.3786 51.955C54.1145 54.0514 53.9163 55.6452 53.784 56.7356C53.7179 57.2804 53.668 57.7016 53.6346 57.9977C53.6062 58.2486 53.5788 58.495 53.5788 58.608H55.5788ZM56.3624 52.2087C56.906 48.0198 57.1868 45.0406 57.1868 43.32H55.1868C55.1868 44.8954 54.9235 47.7562 54.3791 51.9513L56.3624 52.2087ZM57.1868 43.32V43.2H55.1868V43.32H57.1868ZM57.0378 42.6749C56.5388 41.8661 55.9973 41.1762 55.4067 40.6225L54.0388 42.0815C54.4722 42.4878 54.9067 43.0299 55.3357 43.7251L57.0378 42.6749ZM55.2977 42.1702C55.697 41.8896 56.2006 41.728 56.8588 41.728V39.728C55.8529 39.728 54.9325 39.9824 54.1478 40.5338L55.2977 42.1702ZM56.8588 41.728C57.5225 41.728 58.0261 42.002 58.442 42.7181L60.1715 41.7139C59.4354 40.446 58.307 39.728 56.8588 39.728V41.728ZM58.4455 42.7243C58.9682 43.6099 60.0639 46.2114 61.7561 50.6596L63.6254 49.9484C61.9576 45.5646 60.7973 42.7741 60.168 41.7077L58.4455 42.7243ZM61.759 50.6672L62.863 53.4992L64.7265 52.7728L63.6225 49.9408L61.759 50.6672ZM64.6522 53.6505C64.7293 53.522 64.8568 53.3295 65.0437 53.0647L63.4098 51.9113C63.2127 52.1905 63.0522 52.43 62.9373 52.6215L64.6522 53.6505ZM65.0553 53.048C67.0185 50.1434 68.521 47.6822 69.5508 45.6719C70.5625 43.6968 71.181 42.0397 71.2493 40.7822L69.2522 40.6738C69.2085 41.4803 68.767 42.8152 67.7707 44.7601C66.7925 46.6698 65.339 49.0566 63.3982 51.928L65.0553 53.048ZM69.2508 40.728C69.2508 41.2467 69.6209 41.5088 69.675 41.5471C69.7799 41.6214 69.8752 41.6582 69.9086 41.6707C69.9879 41.7004 70.0572 41.7151 70.0828 41.7205C70.1477 41.734 70.2164 41.7435 70.2707 41.7503C70.3879 41.7649 70.5486 41.7803 70.7437 41.7965L70.9098 39.8035C70.7209 39.7877 70.5936 39.7751 70.5188 39.7657C70.4771 39.7605 70.4738 39.759 70.4907 39.7625C70.4923 39.7629 70.5436 39.7728 70.6109 39.798C70.6383 39.8083 70.7291 39.8429 70.831 39.9151C70.8833 39.9521 70.975 40.0243 71.06 40.1413C71.1496 40.2645 71.2508 40.4654 71.2508 40.728H69.2508ZM70.7851 41.7991C71.0603 41.8106 71.3754 41.869 71.7345 41.9887L72.367 40.0913C71.8621 39.923 71.3612 39.8214 70.8684 39.8009L70.7851 41.7991ZM71.776 42.0015C72.0753 42.087 72.1578 42.1874 72.1787 42.2187L73.8428 41.1093C73.4797 40.5646 72.9222 40.249 72.3255 40.0785L71.776 42.0015ZM72.2164 42.2714C72.35 42.4462 72.3957 42.5729 72.41 42.6538L74.3795 42.3062C74.2978 41.8431 74.0875 41.4258 73.8051 41.0566L72.2164 42.2714ZM72.4119 42.6643C72.4409 42.8189 72.4668 43.1824 72.4668 43.824H74.4668C74.4668 43.1856 74.4446 42.6531 74.3776 42.2957L72.4119 42.6643ZM72.4668 43.824C72.4668 44.0617 72.4105 44.6821 72.2764 45.7584C72.1457 46.8083 71.9488 48.2343 71.6852 50.0395L73.6643 50.3285C73.9287 48.5177 74.1278 47.0757 74.2611 46.0056C74.391 44.9619 74.4668 44.2103 74.4668 43.824H72.4668ZM71.6852 50.0395C71.1576 53.6532 70.8828 56.2549 70.8828 57.792H72.8828C72.8828 56.4171 73.1359 53.9468 73.6643 50.3285L71.6852 50.0395ZM70.8828 57.792C70.8828 59.2221 70.9854 60.3973 71.2982 61.1346L73.1393 60.3534C73.0041 60.0347 72.8828 59.2419 72.8828 57.792H70.8828ZM72.4693 59.7759C71.1624 59.4376 70.4835 59.0374 70.1925 58.6995L68.677 60.0045C69.378 60.8186 70.5551 61.3464 71.9682 61.7121L72.4693 59.7759ZM70.2013 58.7098C69.9013 58.3518 69.6908 57.7908 69.6908 56.904H67.6908C67.6908 58.0972 67.9762 59.1682 68.6682 59.9942L70.2013 58.7098ZM69.6908 56.904C69.6908 56.3778 69.8386 54.9574 70.1619 52.549L68.1796 52.283C67.8629 54.6426 67.6908 56.2142 67.6908 56.904H69.6908ZM70.161 52.5556C70.498 50.1645 70.7326 48.2417 70.8627 46.7935L68.8708 46.6145C68.7449 48.0143 68.5155 49.8995 68.1805 52.2764L70.161 52.5556ZM69.0016 46.2025C68.3683 47.2949 67.4618 48.798 66.2796 50.7151L67.9819 51.7649C69.1677 49.842 70.0852 48.3211 70.7319 47.2055L69.0016 46.2025ZM66.2764 50.7203C65.1041 52.6474 64.4103 53.7743 64.1811 54.1257L65.8564 55.2183C66.1072 54.8337 66.8214 53.6726 67.9851 51.7597L66.2764 50.7203ZM64.1925 54.1087C63.9489 54.4659 63.7571 54.7611 63.627 54.9841L65.3545 55.9919C65.4484 55.8309 65.6086 55.5821 65.845 55.2353L64.1925 54.1087Z" fill="#A0D993"/>
</svg>
