<svg width="42" height="42" viewBox="0 0 42 42" fill="none" xmlns="http://www.w3.org/2000/svg">
<g clip-path="url(#clip0_48_12)">
<path fill-rule="evenodd" clip-rule="evenodd" d="M30.4763 25.1685C29.9548 24.9078 27.398 23.6513 26.922 23.4763C26.446 23.303 26.0995 23.2173 25.7513 23.7388C25.4048 24.2568 24.409 25.4293 24.1062 25.7758C23.8017 26.124 23.499 26.166 22.9792 25.907C22.4595 25.6445 20.783 25.0968 18.7968 23.3258C17.2515 21.9468 16.2068 20.244 15.904 19.7225C15.6013 19.2028 15.8708 18.921 16.1315 18.662C16.366 18.4293 16.6512 18.0548 16.912 17.752C17.1727 17.4475 17.2585 17.2305 17.4318 16.8823C17.6068 16.5358 17.5192 16.233 17.388 15.9723C17.2585 15.7115 16.219 13.1513 15.785 12.11C15.3633 11.0968 14.9345 11.235 14.616 11.2175C14.3115 11.2035 13.965 11.2 13.6185 11.2C13.272 11.2 12.7085 11.3295 12.2325 11.851C11.7547 12.3708 10.4125 13.629 10.4125 16.1893C10.4125 18.7478 12.2745 21.2205 12.5353 21.5688C12.796 21.9153 16.2015 27.1688 21.4183 29.421C22.6608 29.9565 23.6285 30.2768 24.3827 30.5148C25.6287 30.912 26.7628 30.856 27.6588 30.7213C28.6563 30.5725 30.7353 29.463 31.1693 28.2485C31.6015 27.034 31.6015 25.9928 31.472 25.7758C31.3425 25.5588 30.996 25.4293 30.4745 25.1685H30.4763ZM20.9878 38.1238H20.9808C17.8823 38.1243 14.8407 37.2914 12.1747 35.7123L11.5448 35.3378L4.99625 37.0563L6.7445 30.6723L6.33325 30.0178C4.60099 27.2604 3.68427 24.0691 3.689 20.8128C3.6925 11.2753 11.452 3.51578 20.9947 3.51578C25.6147 3.51578 29.9583 5.31828 33.2238 8.58728C34.8344 10.1913 36.111 12.0988 36.9797 14.1994C37.8484 16.2999 38.292 18.5519 38.2848 20.825C38.2813 30.3625 30.5217 38.1238 20.9878 38.1238V38.1238ZM35.7088 6.10403C33.7806 4.16315 31.4864 2.62422 28.9592 1.57643C26.4319 0.528643 23.7218 -0.00717349 20.986 3.16564e-05C9.5165 3.16564e-05 0.1785 9.33628 0.175 20.811C0.169685 24.4628 1.12766 28.0515 2.95225 31.2148L0 42L11.032 39.1055C14.0838 40.7682 17.5037 41.6395 20.979 41.6395H20.9878C32.4572 41.6395 41.7953 32.3033 41.7988 20.8268C41.8072 18.092 41.2733 15.3827 40.228 12.8556C39.1827 10.3285 37.6466 8.0337 35.7088 6.10403" fill="#A0D993"/>
</g>
<defs>
<clipPath id="clip0_48_12">
<rect width="42" height="42" fill="white"/>
</clipPath>
</defs>
</svg>
